<svg id="Layer_1" data-name="Layer 1" xmlns="http://www.w3.org/2000/svg" viewBox="0 0 360 162.94"><defs><style>.cls-1{fill:#231f20;}.cls-2,.cls-7{fill:#00a651;}.cls-2,.cls-4,.cls-5{fill-rule:evenodd;}.cls-3{fill:none;stroke:#00a651;stroke-miterlimit:2.61;stroke-width:1.2px;}.cls-4{fill:#006836;}.cls-5,.cls-6{fill:#f58220;}</style></defs><title>ifean-logo</title><path class="cls-1" d="M186.44,151.39v-.26h4.26v.26a3,3,0,0,0-.93.29.72.72,0,0,0-.31.68v8.49a1.62,1.62,0,0,0,.29,1.13,1.58,1.58,0,0,0,.79.4v.24h-4.24v-.26a1.4,1.4,0,0,0,.88-.24,1.11,1.11,0,0,0,.37-1v-5.91h-5.25v5.61a1.59,1.59,0,0,0,.32,1.08,1.27,1.27,0,0,0,.71.43h.24v.24h-4.39v-.26A1.1,1.1,0,0,0,180,162a1.2,1.2,0,0,0,.36-.87v-8.52q0-.8-.34-1a1.4,1.4,0,0,0-.75-.21v-.28h4.26v.26a2,2,0,0,0-.9.22.66.66,0,0,0-.37.62v2.06h5.25v-1.94a.77.77,0,0,0-.32-.74,1.59,1.59,0,0,0-.71-.2h-.09Z"/><path class="cls-1" d="M194.2,158l4.52-1.36a2.86,2.86,0,0,0-.33-.59,3.15,3.15,0,0,0-.42-.48l-.24-.17a.94.94,0,0,0-.22-.11l-.23-.1-.23-.08-.36-.07a1.59,1.59,0,0,0-.33,0H196a2.33,2.33,0,0,0-1.29.89,2.8,2.8,0,0,0-.54,1.77.43.43,0,0,0,0,.08.44.44,0,0,1,0,.08.52.52,0,0,0,0,.1.43.43,0,0,1,0,.08Zm0,.84a5,5,0,0,0,1.36,2.3,3.27,3.27,0,0,0,1.87.9l.14,0H198l.25,0a3.14,3.14,0,0,0,1.48-.72,3.82,3.82,0,0,0,1.1-1.6l.28.11-1,3-.28-.13a5.72,5.72,0,0,1-.64.16l-.7.12-.41,0h-.54a6.7,6.7,0,0,1-3.46-1,4.05,4.05,0,0,1-1.89-3.07.67.67,0,0,0,0-.11.59.59,0,0,1,0-.09.2.2,0,0,0,0-.07.15.15,0,0,1,0,0q0-.09,0-.17a1.08,1.08,0,0,1,0-.13,3.78,3.78,0,0,1,1.39-3.08,5.22,5.22,0,0,1,3.07-1.23H197a4.64,4.64,0,0,1,2.38.76,3.8,3.8,0,0,1,1.58,2.23Z"/><path class="cls-1" d="M208.35,157.56a10.91,10.91,0,0,0-1.93.72,7.19,7.19,0,0,0-1.39.87l-.12.11-.12.11a2.2,2.2,0,0,0-.22.25,3,3,0,0,0-.18.27,1.82,1.82,0,0,0-.17.36,1,1,0,0,0-.06.32.44.44,0,0,0,0,.08.55.55,0,0,1,0,.1,1.14,1.14,0,0,0,.12.27,1.3,1.3,0,0,0,.2.25,1.61,1.61,0,0,0,.46.35,1.69,1.69,0,0,0,.57.18h.13a1.67,1.67,0,0,0,.35,0l.36-.09a3,3,0,0,0,1.36-1.16,4.18,4.18,0,0,0,.62-2.43Zm0-.82v-.24a1.47,1.47,0,0,0-.56-1.27,2.15,2.15,0,0,0-1.31-.41,3.3,3.3,0,0,0-.54,0,3.72,3.72,0,0,0-.56.14,4.85,4.85,0,0,0-1.46.81,3.54,3.54,0,0,0-1,1.36l.28-2.88a1,1,0,0,0,.25.21.53.53,0,0,0,.25.07,1.34,1.34,0,0,0,.52-.13l.73-.3a8.26,8.26,0,0,1,1-.28,6.25,6.25,0,0,1,1.36-.13,3.72,3.72,0,0,1,2.1.59,1.84,1.84,0,0,1,.89,1.62v4.79a1.79,1.79,0,0,0,.23,1,1.46,1.46,0,0,0,.51.5,1.11,1.11,0,0,0,.28.13.89.89,0,0,0,.24,0v.24H209a2.48,2.48,0,0,1-.3-.55,5.11,5.11,0,0,1-.21-.7.74.74,0,0,1,0-.11.74.74,0,0,0,0-.11,3,3,0,0,1-1.13,1.07,4.31,4.31,0,0,1-1.49.51,3.29,3.29,0,0,1-.47.07l-.45,0a4.07,4.07,0,0,1-1.55-.29,1.57,1.57,0,0,1-.93-.85l-.18-.55a1.68,1.68,0,0,1-.08-.5,2.73,2.73,0,0,1,1.72-2.37,16.65,16.65,0,0,1,4.43-1.51Z"/><path class="cls-1" d="M211.88,151.13l3-.41v10.54a1,1,0,0,0,.26.81,1.77,1.77,0,0,0,.69.29s0,0,0,0h0v.24H212v-.26l0,0s0,0,0,0a1.76,1.76,0,0,0,.65-.29,1,1,0,0,0,.26-.79v-8.94a.79.79,0,0,0-.34-.71,1.35,1.35,0,0,0-.77-.22Z"/><path class="cls-1" d="M219.3,154.27h1.21l.15,0h.15l.52-.07a2,2,0,0,0,.58-.22l-.67,1.36-.1-.07-.1-.06a.65.65,0,0,0-.31-.1H219.3v4.92a1.92,1.92,0,0,0,.39,1.38,1.2,1.2,0,0,0,.86.39h.28a2.24,2.24,0,0,0,.65-.26,1.8,1.8,0,0,0,.49-.39l0-.07,0-.07.28.11-.67,1.5q-.58.15-1.11.23a6,6,0,0,1-.91.08,1.87,1.87,0,0,1-1.8-.81,4.31,4.31,0,0,1-.44-2.06v-4.94h-1.08v-.32a1.37,1.37,0,0,0,1-.68,2.71,2.71,0,0,0,.36-1.21.41.41,0,0,0,0-.13v-.35l0-.33,0-.29,1.65-.84Z"/><path class="cls-1" d="M225.66,155.78a8.93,8.93,0,0,1,.78-.69,7.33,7.33,0,0,1,.81-.56,5.32,5.32,0,0,1,1.14-.5,3.66,3.66,0,0,1,1-.17,2,2,0,0,1,1.44.51,2,2,0,0,1,.56,1.56V161q0,.93.34,1.16a1.32,1.32,0,0,0,.75.22v.24h-4v-.26l0,0h0a1.43,1.43,0,0,0,.72-.19q.33-.19.33-1.18v-4.41a1.44,1.44,0,0,0-.36-1.08,1.18,1.18,0,0,0-.84-.34,1.9,1.9,0,0,0-.4,0,2.08,2.08,0,0,0-.42.14,3.84,3.84,0,0,0-1.29.89,2.18,2.18,0,0,0-.67,1.3v3.7a1,1,0,0,0,.35.88,1.32,1.32,0,0,0,.78.24v.24h-4v-.26a1.33,1.33,0,0,0,.75-.18q.34-.2.34-.91v-8.65a1.09,1.09,0,0,0-.29-.91,1.91,1.91,0,0,0-.79-.31v-.28l2.86-.41Z"/><path class="cls-1" d="M241.1,153.58l.54,2.88-.26.15a1.73,1.73,0,0,0-.85-1.19,3.76,3.76,0,0,0-1.69-.64h-.36a2.65,2.65,0,0,0-1.81.74,3.31,3.31,0,0,0-.82,2.55v.07a.31.31,0,0,0,0,.09h0a.53.53,0,0,0,0,.1.43.43,0,0,1,0,.08,3.39,3.39,0,0,0,1,2.38,3.86,3.86,0,0,0,2.15,1.13l.22,0h.32a3,3,0,0,0,1.5-.5,2.89,2.89,0,0,0,1.09-1.4l.28.11-1,2.73-.41-.15-.35,0-.36,0-.44,0h-.42a6,6,0,0,1-3.89-1.13,4.65,4.65,0,0,1-1.66-3.17,1,1,0,0,0,0-.14,1,1,0,0,1,0-.14,1,1,0,0,0,0-.14,1,1,0,0,1,0-.14V158a4.83,4.83,0,0,1,1-2.91,3.34,3.34,0,0,1,2.84-1.32l.45,0,1.36.14q.51,0,.76,0a1.13,1.13,0,0,0,.4,0,.6.6,0,0,0,.18-.12l0,0,0,0,0,0,.07,0Z"/><path class="cls-1" d="M249.43,157.56a10.9,10.9,0,0,0-1.93.72,7.19,7.19,0,0,0-1.39.87l-.12.11-.12.11a2.2,2.2,0,0,0-.22.25,3,3,0,0,0-.18.27,1.82,1.82,0,0,0-.17.36,1,1,0,0,0-.06.32.43.43,0,0,0,0,.08.56.56,0,0,1,0,.1,1.14,1.14,0,0,0,.12.27,1.3,1.3,0,0,0,.2.25,1.61,1.61,0,0,0,.46.35,1.69,1.69,0,0,0,.57.18h.13a1.67,1.67,0,0,0,.35,0l.36-.09a3,3,0,0,0,1.36-1.16,4.17,4.17,0,0,0,.62-2.43Zm0-.82v-.24a1.47,1.47,0,0,0-.56-1.27,2.15,2.15,0,0,0-1.31-.41,3.31,3.31,0,0,0-.54,0,3.72,3.72,0,0,0-.56.14,4.85,4.85,0,0,0-1.46.81,3.54,3.54,0,0,0-1,1.36l.28-2.88a1,1,0,0,0,.25.21.52.52,0,0,0,.25.07,1.34,1.34,0,0,0,.52-.13l.73-.3a8.25,8.25,0,0,1,1-.28,6.25,6.25,0,0,1,1.36-.13,3.72,3.72,0,0,1,2.1.59,1.84,1.84,0,0,1,.89,1.62v4.79a1.79,1.79,0,0,0,.23,1,1.46,1.46,0,0,0,.51.5,1.11,1.11,0,0,0,.28.13.89.89,0,0,0,.24,0v.24h-2.49a2.48,2.48,0,0,1-.3-.55,5.08,5.08,0,0,1-.21-.7.73.73,0,0,1,0-.11.73.73,0,0,0,0-.11,3,3,0,0,1-1.13,1.07,4.31,4.31,0,0,1-1.49.51,3.29,3.29,0,0,1-.47.07l-.45,0a4.07,4.07,0,0,1-1.55-.29,1.57,1.57,0,0,1-.93-.85l-.18-.55a1.68,1.68,0,0,1-.08-.5,2.73,2.73,0,0,1,1.72-2.37,16.65,16.65,0,0,1,4.43-1.51Z"/><path class="cls-1" d="M256,155.78a3.74,3.74,0,0,0,.27-.37,3.06,3.06,0,0,1,.4-.49,3.59,3.59,0,0,1,1-.74,3.43,3.43,0,0,1,1.61-.33l.3,0-.41,2.07a1.14,1.14,0,0,0-.36-.26,1.58,1.58,0,0,0-.47-.15l-.18,0h-.42a1.86,1.86,0,0,0-1.11.73,3,3,0,0,0-.5,1.91v3.42a.73.73,0,0,0,.24.63,1,1,0,0,0,.54.2l.1,0h.1v.24h-3.85v-.26a1,1,0,0,0,.68-.19.72.72,0,0,0,.27-.62V155.5a.79.79,0,0,0-.34-.71,1.32,1.32,0,0,0-.75-.22v-.28l2.45-.28a1.77,1.77,0,0,1,.36.86,8.69,8.69,0,0,1,0,.93Z"/><path class="cls-1" d="M262.37,158l4.52-1.36a2.85,2.85,0,0,0-.33-.59,3.15,3.15,0,0,0-.42-.48l-.24-.17a.94.94,0,0,0-.22-.11l-.23-.1-.23-.08-.36-.07a1.59,1.59,0,0,0-.33,0h-.36a2.33,2.33,0,0,0-1.29.89,2.8,2.8,0,0,0-.54,1.77.43.43,0,0,0,0,.08.44.44,0,0,1,0,.08.52.52,0,0,0,0,.1.43.43,0,0,1,0,.08Zm0,.84a5,5,0,0,0,1.36,2.3,3.27,3.27,0,0,0,1.87.9l.14,0h.39l.25,0a3.14,3.14,0,0,0,1.48-.72,3.82,3.82,0,0,0,1.1-1.6l.28.11-1,3-.28-.13a5.73,5.73,0,0,1-.64.16l-.7.12-.41,0h-.54a6.7,6.7,0,0,1-3.46-1,4.05,4.05,0,0,1-1.89-3.07.68.68,0,0,0,0-.11.59.59,0,0,1,0-.09.21.21,0,0,0,0-.07.15.15,0,0,1,0,0q0-.09,0-.17a1.08,1.08,0,0,1,0-.13,3.78,3.78,0,0,1,1.39-3.08,5.22,5.22,0,0,1,3.08-1.23h.43a4.64,4.64,0,0,1,2.38.76,3.8,3.8,0,0,1,1.58,2.23Z"/><path class="cls-1" d="M271.29,161.54a1,1,0,0,1,.34-.8,1.84,1.84,0,0,1,.75-.41h.15l.15,0a1.39,1.39,0,0,1,.64.39,1.11,1.11,0,0,1,.29.8,1.33,1.33,0,0,1-.31.94,1.17,1.17,0,0,1-.68.38l-.08,0h-.08a1.13,1.13,0,0,1-.79-.35,1.31,1.31,0,0,1-.36-1Z"/><path class="cls-1" d="M279.6,160.87l0,.07a.72.72,0,0,0,.47.64,2.45,2.45,0,0,0,1.14.24,4.49,4.49,0,0,0,.68-.06,3.7,3.7,0,0,0,.72-.19,4.9,4.9,0,0,0,2-1.43,4.3,4.3,0,0,0,.93-2.89v-.37a4.38,4.38,0,0,0-.94-2.67,6.23,6.23,0,0,0-2-1.71,4.5,4.5,0,0,0-.86-.35,3,3,0,0,0-.8-.12,1.43,1.43,0,0,0-.94.32,1.19,1.19,0,0,0-.38,1Zm-3.14,1.37a1,1,0,0,0,.81-.29,1.28,1.28,0,0,0,.29-.91v-8.41a1.17,1.17,0,0,0-.36-.86,1.19,1.19,0,0,0-.88-.36v-.28H281a6.26,6.26,0,0,1,4.74,1.79,6.6,6.6,0,0,1,1.9,3.88q0,.17,0,.34c0,.11,0,.22,0,.34a5.54,5.54,0,0,1-1.3,3.59,4.7,4.7,0,0,1-3.88,1.6l-6,0Z"/><path class="cls-1" d="M291.21,158l4.52-1.36a2.86,2.86,0,0,0-.33-.59,3.15,3.15,0,0,0-.42-.48l-.24-.17a.94.94,0,0,0-.22-.11l-.23-.1-.23-.08-.36-.07a1.59,1.59,0,0,0-.33,0H293a2.34,2.34,0,0,0-1.29.89,2.8,2.8,0,0,0-.54,1.77.44.44,0,0,0,0,.08.44.44,0,0,1,0,.08.53.53,0,0,0,0,.1.43.43,0,0,1,0,.08Zm0,.84a5,5,0,0,0,1.36,2.3,3.27,3.27,0,0,0,1.87.9l.14,0H295l.25,0a3.14,3.14,0,0,0,1.48-.72,3.82,3.82,0,0,0,1.1-1.6l.28.11-1,3-.28-.13a5.73,5.73,0,0,1-.64.16l-.7.12-.41,0h-.54a6.7,6.7,0,0,1-3.46-1,4.05,4.05,0,0,1-1.89-3.07.69.69,0,0,0,0-.11.58.58,0,0,1,0-.09.2.2,0,0,0,0-.07.15.15,0,0,1,0,0q0-.09,0-.17a1.07,1.07,0,0,1,0-.13,3.78,3.78,0,0,1,1.39-3.08,5.22,5.22,0,0,1,3.08-1.23H294a4.64,4.64,0,0,1,2.38.76,3.8,3.8,0,0,1,1.58,2.23Z"/><path class="cls-1" d="M299,151.13l3-.41v10.54a1,1,0,0,0,.26.81,1.77,1.77,0,0,0,.69.29s0,0,0,0h0v.24h-3.85v-.26l0,0s0,0,0,0a1.76,1.76,0,0,0,.65-.29,1,1,0,0,0,.26-.79v-8.94a.79.79,0,0,0-.34-.71,1.35,1.35,0,0,0-.77-.22Z"/><path class="cls-1" d="M304.54,151.52a1.06,1.06,0,0,1,.3-.79,1.3,1.3,0,0,1,.64-.37l.14,0H306a1.35,1.35,0,0,1,.68.37,1.09,1.09,0,0,1,.31.82v.15a1.17,1.17,0,0,1-.36.94,1.21,1.21,0,0,1-.79.31h-.15a1.33,1.33,0,0,1-.79-.42,1.35,1.35,0,0,1-.36-1Zm2.17,2.32v7.29a1.47,1.47,0,0,0,.25.94,1.09,1.09,0,0,0,.89.31v.24h-4v-.26a1.11,1.11,0,0,0,.81-.24,1.28,1.28,0,0,0,.29-1v-5.5a1,1,0,0,0-.34-.91,2.33,2.33,0,0,0-.77-.31v-.28Z"/><path class="cls-1" d="M313.34,161.13l2.19-6V155a.05.05,0,0,1,0,0v-.15a.51.51,0,0,0-.13-.36.6.6,0,0,0-.45-.14V154h2.77v.28l-.17,0a.58.58,0,0,0-.19.07,1.45,1.45,0,0,0-.48.34,1.15,1.15,0,0,0-.29.52l-2.45,6.15a.92.92,0,0,1,0,.14l-.07.14a.15.15,0,0,1,0,0l0,.07a1.76,1.76,0,0,0-.07.2.69.69,0,0,0,0,.18.2.2,0,0,0,.07.16.33.33,0,0,0,.22.07h0l0,0h.11v.24h-3v-.26a.43.43,0,0,0,.25,0,.2.2,0,0,0,.1-.1.14.14,0,0,0,0-.06v0a.59.59,0,0,0,0-.09.33.33,0,0,0,0-.09v-.06l0-.13a.3.3,0,0,1,0-.07L309.23,155a1.19,1.19,0,0,0-.31-.48.74.74,0,0,0-.51-.18V154h3.53v.28a.86.86,0,0,0-.53.21.56.56,0,0,0-.22.43.08.08,0,0,0,0,0l0,.06v0a.08.08,0,0,1,0,0l0,0v0Z"/><path class="cls-1" d="M320.6,158l4.52-1.36a2.85,2.85,0,0,0-.33-.59,3.15,3.15,0,0,0-.42-.48l-.24-.17a.94.94,0,0,0-.22-.11l-.23-.1-.23-.08-.36-.07a1.59,1.59,0,0,0-.33,0h-.36a2.33,2.33,0,0,0-1.29.89,2.8,2.8,0,0,0-.54,1.77.44.44,0,0,0,0,.08.44.44,0,0,1,0,.08.53.53,0,0,0,0,.1.42.42,0,0,1,0,.08Zm0,.84a5,5,0,0,0,1.36,2.3,3.27,3.27,0,0,0,1.87.9l.14,0h.39l.25,0a3.14,3.14,0,0,0,1.48-.72,3.82,3.82,0,0,0,1.1-1.6l.28.11-1,3-.28-.13a5.74,5.74,0,0,1-.64.16l-.7.12-.41,0h-.54a6.69,6.69,0,0,1-3.46-1,4.05,4.05,0,0,1-1.89-3.07.69.69,0,0,0,0-.11.58.58,0,0,1,0-.09.21.21,0,0,0,0-.07.15.15,0,0,1,0,0q0-.09,0-.17a1.06,1.06,0,0,1,0-.13,3.78,3.78,0,0,1,1.39-3.08A5.22,5.22,0,0,1,323,153.9h.43a4.64,4.64,0,0,1,2.38.76,3.8,3.8,0,0,1,1.58,2.23Z"/><path class="cls-1" d="M331.42,155.78a3.76,3.76,0,0,0,.27-.37,3.07,3.07,0,0,1,.4-.49,3.6,3.6,0,0,1,1-.74,3.43,3.43,0,0,1,1.61-.33l.3,0-.41,2.07a1.14,1.14,0,0,0-.36-.26,1.58,1.58,0,0,0-.47-.15l-.18,0h-.42a1.86,1.86,0,0,0-1.11.73,3,3,0,0,0-.5,1.91v3.42a.73.73,0,0,0,.24.63,1,1,0,0,0,.54.2l.1,0h.1v.24h-3.85v-.26a1,1,0,0,0,.68-.19.72.72,0,0,0,.27-.62V155.5a.79.79,0,0,0-.34-.71,1.32,1.32,0,0,0-.75-.22v-.28L331,154a1.77,1.77,0,0,1,.36.86,8.66,8.66,0,0,1,0,.93Z"/><path class="cls-1" d="M337.81,158l4.52-1.36A2.86,2.86,0,0,0,342,156a3.15,3.15,0,0,0-.42-.48l-.24-.17a.94.94,0,0,0-.22-.11l-.23-.1-.23-.08-.36-.07a1.59,1.59,0,0,0-.33,0h-.36a2.33,2.33,0,0,0-1.29.89,2.8,2.8,0,0,0-.54,1.77.43.43,0,0,0,0,.08.44.44,0,0,1,0,.08.52.52,0,0,0,0,.1.43.43,0,0,1,0,.08Zm0,.84a5,5,0,0,0,1.36,2.3,3.27,3.27,0,0,0,1.87.9l.14,0h.39l.25,0a3.14,3.14,0,0,0,1.48-.72,3.82,3.82,0,0,0,1.1-1.6l.28.11-1,3-.28-.13a5.73,5.73,0,0,1-.64.16l-.7.12-.41,0h-.54a6.69,6.69,0,0,1-3.46-1,4.05,4.05,0,0,1-1.89-3.07.67.67,0,0,0,0-.11.59.59,0,0,1,0-.09.2.2,0,0,0,0-.07.15.15,0,0,1,0,0q0-.09,0-.17a1.08,1.08,0,0,1,0-.13,3.78,3.78,0,0,1,1.39-3.08,5.22,5.22,0,0,1,3.08-1.23h.43a4.64,4.64,0,0,1,2.38.76,3.8,3.8,0,0,1,1.58,2.23Z"/><path class="cls-1" d="M352.78,161.8v-6a.91.91,0,0,0-.44-.82,1.85,1.85,0,0,0-1-.28,2.71,2.71,0,0,0-.5,0l-.51.12a4.09,4.09,0,0,0-1.53,1,2.69,2.69,0,0,0-.8,1.76,1,1,0,0,1,0,.14,1,1,0,0,0,0,.14.13.13,0,0,1,0,.06.13.13,0,0,0,0,.06q0,.09,0,.19c0,.06,0,.12,0,.17a3.11,3.11,0,0,0,.78,2.35,3.89,3.89,0,0,0,1.69,1,4.54,4.54,0,0,0,.89.17q.44,0,.78,0h.75Zm1.79-11.23v10.56a1.4,1.4,0,0,0,.27.94.87.87,0,0,0,.68.31v.24H350.6a4.63,4.63,0,0,1-3.58-1.34,4.41,4.41,0,0,1-1.32-3v-.11a4.3,4.3,0,0,1,1.34-3,5.47,5.47,0,0,1,4.1-1.38h.5l.53,0,.32,0,.3,0v-1.1q0-.92-.34-1.13a1.36,1.36,0,0,0-.75-.22v-.28Z"/><path class="cls-1" d="M357.68,161.54a1,1,0,0,1,.34-.8,1.84,1.84,0,0,1,.75-.41h.15l.15,0a1.39,1.39,0,0,1,.64.39,1.11,1.11,0,0,1,.29.8,1.33,1.33,0,0,1-.31.94,1.17,1.17,0,0,1-.68.38l-.08,0h-.08a1.13,1.13,0,0,1-.79-.35,1.31,1.31,0,0,1-.36-1Z"/><path class="cls-2" d="M28.25,85.27a5.8,5.8,0,1,1-5.8,5.8,5.8,5.8,0,0,1,5.8-5.8"/><path class="cls-2" d="M10.35,68.36c-.58.2-8.12-1.4-9.88-3.18-2.3-2.33,4.63-2.62,5.47-2.65,9.55-.29,28.38,2,32,2.51,39.48,5.89,72,20.12,97.94,39.16C94.29,78.54,60.76,66.63,13,64A64.57,64.57,0,0,0,2.59,64c-.74.12-1.38.4-.63,1.1,1.4,1.31,6.79,2.79,8.39,3.21"/><path class="cls-2" d="M18.79,41.3c-.59.17-8-1.82-9.7-3.69-2.18-2.45,4.76-2.38,5.6-2.36,9.55.2,28.24,3.42,31.83,4.15,39.13,7.92,70.89,23.79,95.79,44.14C102.1,55.79,69.23,42.18,21.68,37.1a64.58,64.58,0,0,0-10.41-.49c-.74.08-1.4.32-.69,1.07,1.33,1.38,6.64,3.14,8.21,3.64"/><path class="cls-2" d="M30.1,26c-.58.2-8.11-1.46-9.86-3.25-2.29-2.35,4.64-2.59,5.49-2.61,9.55-.23,28.36,2.16,32,2.73,39.44,6.17,71.88,20.61,97.67,39.83C114,36.79,80.52,24.65,32.79,21.69a64.57,64.57,0,0,0-10.42,0c-.74.11-1.39.39-.64,1.1C23.12,24.08,28.5,25.6,30.1,26"/><path class="cls-2" d="M41.3,16.13c-.58.24-8.06-1.3-9.79-3.21-2.27-2.5,4.61-3,5.45-3.06,9.49-.6,28.18,1.35,31.77,1.85,39.18,5.34,71.4,20,97,40.19C124.61,24.92,91.38,12.81,44,11.28a58.23,58.23,0,0,0-10.35.34c-.73.15-1.38.47-.64,1.23,1.38,1.4,6.72,2.87,8.31,3.28"/><path class="cls-2" d="M57,10.39c-.54.24-7.53-1-9.15-2.72-2.13-2.27,4.31-2.95,5.1-3,8.87-.83,26.34.44,29.7.8C119.28,9.31,149.4,22.1,173.35,40.2c-38.46-24-69.52-34.38-113.84-34.42a54.71,54.71,0,0,0-9.68.62c-.68.16-1.29.48-.6,1.16,1.29,1.27,6.29,2.49,7.77,2.83"/><path class="cls-2" d="M72,5.93c-.44.2-6.17-.68-7.5-2.07C62.81,2,68.08,1.37,68.72,1.3,76,.46,90.29,1.21,93,1.45c30,2.54,54.66,12.5,74.27,26.92-31.49-19-56.93-27-93.23-26.26a45,45,0,0,0-7.92.67c-.56.14-1.05.42-.49,1,1.06,1,5.15,1.93,6.36,2.18"/><path class="cls-3" d="M50.26,80.7c15.15-44,44.44-62.65,80.1-69.93"/><path class="cls-3" d="M74.55,96.92c5.75-42.28,28.62-69.35,63.94-85.36"/><path class="cls-3" d="M110.79,97.4q.76-49.18,36.53-79.52"/><path class="cls-4" d="M5.93,62.77C24.14,2.58,71.74-8.06,129.8,4.88,48.36-6.82,21.59,24.05,5.93,62.77"/><path class="cls-5" d="M28.46,78.65c-1.29-14.57,3-31.7,11.47-45.77C59.38.51,95.46-3.4,129.8,4.88,88,.11,55.31,6.14,37.5,47c-4.39,10.07-7.12,21-9,31.62"/><path class="cls-5" d="M132,1.62a3.62,3.62,0,1,1-3.62,3.62A3.62,3.62,0,0,1,132,1.62"/><rect class="cls-6" x="25.76" y="107.23" width="4.97" height="36.88"/><polygon class="cls-7" points="211.47 144.11 206.51 144.11 206.51 107.23 184.86 107.23 184.86 144.11 179.91 144.11 179.91 107.23 172.43 107.23 175.4 102.17 179.91 102.17 179.91 82.78 184.86 82.78 184.86 102.17 206.51 102.17 206.51 82.78 211.47 82.78 211.47 144.11"/><path class="cls-7" d="M222.93,133.83l21.55-19.12a14.45,14.45,0,0,0-24,11,14.43,14.43,0,0,0,2.44,8.11m24.89-1.36,4.33,2.44a19.32,19.32,0,0,1-7,7.44,19.37,19.37,0,1,1,6.31-27.19l-25.16,22.18a14.72,14.72,0,0,0,16.28.81A14.39,14.39,0,0,0,247.82,132.47Z"/><path class="cls-7" d="M274.42,111.2a14.48,14.48,0,1,0,10.28,4.24,14.08,14.08,0,0,0-10.28-4.24m14.06,28a19.52,19.52,0,0,1-33.54-13.44,19.44,19.44,0,0,1,33.54-13.44l5.41-5.05v36.88Z"/><rect class="cls-7" x="299.31" y="82.78" width="4.97" height="61.33"/><polygon class="cls-7" points="315.01 112.18 308.34 112.18 308.34 107.23 315.01 107.23 315.01 96.86 319.96 94.42 319.96 107.23 326.56 107.23 326.56 112.18 319.96 112.18 319.96 144.11 315.01 144.11 315.01 112.18"/><path class="cls-7" d="M355,120.94a9.32,9.32,0,0,0-2.84-7,9.56,9.56,0,0,0-6.9-2.74,9.7,9.7,0,0,0-9.74,9.74v23.18h-5V82.78h5v27.14a14.61,14.61,0,0,1,24.43,11v23.18h-5Z"/><path class="cls-2" d="M28.25,85.27a5.8,5.8,0,1,1-5.8,5.8,5.8,5.8,0,0,1,5.8-5.8"/><path class="cls-6" d="M43.35,111.2H36.59v-5h6.75V95.13a13.12,13.12,0,0,1,1.81-6.75A13.38,13.38,0,0,1,50,83.51a13,13,0,0,1,6.75-1.81,13.2,13.2,0,0,1,7.94,2.61L61.4,88a8,8,0,0,0-4.61-1.34,8.43,8.43,0,0,0-8.47,8.47v11.1H55v5H48.32V143h-5Z"/><path class="cls-6" d="M66.45,132.75,88,113.63a14.45,14.45,0,0,0-24,11,14.43,14.43,0,0,0,2.44,8.11m24.89-1.36,4.33,2.44a19.32,19.32,0,0,1-7,7.44,19.24,19.24,0,0,1-23.8-2.93,19.44,19.44,0,0,1,13.71-33.2,19.88,19.88,0,0,1,16.41,8.94L69.78,136.26a14.72,14.72,0,0,0,16.28.81A14.38,14.38,0,0,0,91.34,131.39Z"/><path class="cls-6" d="M117.94,110.11a14.48,14.48,0,1,0,10.28,4.24,14.08,14.08,0,0,0-10.28-4.24m14.07,28a19.52,19.52,0,0,1-33.54-13.44A19.44,19.44,0,0,1,132,111.2l5.41-5.06V143Z"/><path class="cls-6" d="M142.83,143V106.14l4.24,3.43a13.89,13.89,0,0,1,10.47-4.43,14.46,14.46,0,0,1,14.69,14.71V143h-5V119.85a9.32,9.32,0,0,0-2.84-7,9.56,9.56,0,0,0-6.9-2.74,9.7,9.7,0,0,0-9.74,9.74V143Z"/></svg>